HIERARCHY
ROOT Hips
{
  OFFSET 13.8669 100.08 148.315
  CHANNELS 6 Xposition Yposition Zposition Zrotation Xrotation Yrotation
  JOINT RightUpLeg
  {
    OFFSET -8.9458 -8.66707 0.101652
    CHANNELS 3 Zrotation Xrotation Yrotation
    JOINT RightLeg
    {
      OFFSET 0 -44.4227 1.3727
      CHANNELS 3 Zrotation Xrotation Yrotation
      JOINT RightFoot
      {
        OFFSET 0.253549 -42.0924 -1.46059
        CHANNELS 3 Zrotation Xrotation Yrotation
        JOINT RightToes
        {
          OFFSET 0.04 -4.41509 8.4991
          CHANNELS 3 Zrotation Xrotation Yrotation
          End Site
          {
            OFFSET -0.08 -0.137448 9.77979
          }
        }
      }
    }
  }
  JOINT Spine
  {
    OFFSET 0 11.8905 0
    CHANNELS 3 Zrotation Xrotation Yrotation
    JOINT Spine1
    {
      OFFSET 0 25.6574 0.127663
      CHANNELS 3 Zrotation Xrotation Yrotation
      JOINT HEad
      {
        OFFSET 0 8.73416 0.011341
        CHANNELS 3 Zrotation Xrotation Yrotation
        End Site
        {
          OFFSET -0.29 12.7742 2.51395
        }
      }
      JOINT LeftShoulder1
      {
        OFFSET 8.99 -0.362252 -0.22
        CHANNELS 3 Zrotation Xrotation Yrotation
        JOINT LeftArm
        {
          OFFSET 10.2827 -0.00338 0.322123
          CHANNELS 3 Zrotation Xrotation Yrotation
          JOINT LeftForeArm
          {
            OFFSET 32.7669 0.099144 -1.42434
            CHANNELS 3 Zrotation Xrotation Yrotation
            JOINT LeftHand
            {
              OFFSET 27.5643 0.085362 1.02216
              CHANNELS 3 Zrotation Xrotation Yrotation
              End Site
              {
                OFFSET 16.7443 -0.6 1.50291
              }
            }
          }
        }
      }
      JOINT RightShoulder
      {
        OFFSET -8.99 -0.362252 -0.22
        CHANNELS 3 Zrotation Xrotation Yrotation
        JOINT RightArm
        {
          OFFSET -10.2827 -0.00338 0.322123
          CHANNELS 3 Zrotation Xrotation Yrotation
          JOINT RightForeArm
          {
            OFFSET -32.8971 0.099144 -1.42434
            CHANNELS 3 Zrotation Xrotation Yrotation
            JOINT RightHand
            {
              OFFSET -27.4921 0.085362 1.02216
              CHANNELS 3 Zrotation Xrotation Yrotation
              End Site
              {
                OFFSET -16.6312 -0.6 1.50291
              }
            }
          }
        }
      }
    }
  }
  JOINT LeftUpLeg
  {
    OFFSET 8.9458 -8.66707 0.101652
    CHANNELS 3 Zrotation Xrotation Yrotation
    JOINT LeftLeg
    {
      OFFSET 0 -44.4227 1.3727
      CHANNELS 3 Zrotation Xrotation Yrotation
      JOINT LeftFoot
      {
        OFFSET -0.253549 -42.0924 -1.46059
        CHANNELS 3 Zrotation Xrotation Yrotation
        JOINT LeftToes
        {
          OFFSET -0.04 -4.41509 8.4991
          CHANNELS 3 Zrotation Xrotation Yrotation
          End Site
          {
            OFFSET 0.08 -0.047448 9.77979
          }
        }
      }
    }
  }
}
MOTION
Frames:	10
Frame Time:	0.0166667
12.3317 101.636 197.204 -0.472035 -0.0131246 175.328 6.27045 2.70433 0.434198 -5.99946 36.1787 -5.33189 -1.71841 11.6399 0.0867117 0.0462048 0.000533964 0.662642 -0.75861 4.45025 0.143872 -0.273537 9.9325 -0.00170531 -1.06466 -3.4809 8.54473 2.20695e-032 1.59028e-015 -7.95139e-016 -79.3534 -44.6065 12.4931 -22.0208 16.3756 -22.1316 0.368473 9.90896 -0.00117926 -10.3105 -0.0752315 9.65122 96.2279 -17.6791 21.8225 17.3067 19.5545 45.2491 -0.369625 9.91382 0.00119886 -4.95678 -26.3391 0.334384 3.39342 25.9945 1.06321 -1.19156 12.4484 0.201897 1.03365e-011 -7.28951e-011 2.56418e-011 
12.2075 101.661 195.366 -1.17239 0.382387 175.193 4.85713 0.794902 -1.30333 -6.88233 40.0864 -3.81844 -1.02814 15.9898 0.0360228 -8.29319 4.07402 4.06592 -1.51094 4.55251 0.147412 -0.97234 10.5174 0.0543115 -0.99043 -3.03875 8.76105 3.97569e-016 1.59028e-015 -0 -80.2292 -44.6312 10.9745 -21.6516 16.4199 -22.5969 0.368473 9.90896 -0.00117926 -10.5752 -0.103387 9.43176 96.8402 -17.6159 21.3393 17.3531 19.3578 44.0636 -0.369625 9.91382 0.00119886 -5.77626 -25.2712 0.953767 3.56488 27.029 0.482662 -1.24867 10.9233 0.200788 -0.232072 0.339013 0.242062 
12.1 101.668 193.545 -1.8654 0.718284 175.045 3.48282 -1.30851 -3.08789 -8.26643 44.0823 -1.84995 -0.528189 19.2996 0.00423185 -14.5007 7.50914 6.30416 -2.30791 4.65931 0.165678 -1.64084 11.0413 0.107997 -0.968269 -2.64654 8.9147 -8.82781e-032 -3.18055e-015 -1.59028e-015 -81.0877 -44.5384 9.48076 -21.3112 16.5032 -23.2377 0.368473 9.90896 -0.00117926 -10.7614 -0.12171 9.08631 97.4019 -17.5045 20.8983 17.4271 19.1265 42.5882 -0.369625 9.91382 0.00119886 -6.57977 -24.2728 1.30861 3.61087 28.0774 0.203822 -1.3429 9.34379 0.199801 -0.438955 0.739721 0.427815 
12.0431 101.596 191.779 -2.61248 0.914138 174.887 2.28999 -3.96749 -5.28634 -11.0142 48.5584 1.92538 -0.539269 19.574 0.02247 -13.0411 9.4338 4.86488 -3.28449 4.79328 0.22058 -2.3342 11.4426 0.166493 -1.04513 -2.37712 8.83671 5.96354e-016 3.18055e-015 -1.59028e-015 -81.8631 -44.1481 8.06701 -21.0216 16.6872 -24.3916 0.368473 9.90896 -0.00117926 -10.6868 -0.107338 8.29066 97.868 -17.2101 20.6176 17.575 18.7779 40.2039 -0.369625 9.91382 0.00119886 -7.35409 -23.4991 0.810714 3.18799 29.2599 0.931647 -1.57269 7.56416 0.207537 -0.550908 1.39107 0.409049 
12.002 101.549 190.024 -3.20959 0.973559 174.653 1.30352 -6.84363 -7.03396 -14.4667 52.5399 5.47806 -0.909957 18.6375 0.0848226 -8.75436 10.1905 2.28328 -4.21493 4.90468 0.305345 -2.75953 11.6624 0.197923 -1.26653 -2.2086 8.78152 -3.97569e-016 -3.18055e-015 -7.95139e-016 -82.6213 -43.6178 6.722 -20.8104 16.9214 -25.7529 0.368473 9.90896 -0.00117926 -10.5822 -0.0891236 7.51341 98.1682 -16.9532 20.3124 17.7389 18.3682 37.6093 -0.369625 9.91382 0.00119886 -7.88334 -22.7723 0.246235 2.5972 30.2742 1.86287 -1.7921 5.8041 0.20958 -0.658031 1.97312 0.405115 
11.944 101.647 188.246 -3.40718 0.840879 174.226 0.937583 -9.78194 -7.36597 -16.6992 55.3255 5.3439 -1.6908 17.7223 0.214577 -5.57854 9.72444 0.549003 -4.85689 4.939 0.425303 -2.54283 11.5755 0.161006 -1.73973 -2.18214 9.04339 -5.96354e-016 -6.36111e-015 7.95139e-016 -83.4167 -43.0588 5.50276 -20.7534 17.2031 -27.1733 0.368473 9.90896 -0.00117926 -10.6512 -0.0923413 7.17138 98.1498 -16.8818 19.8367 17.9653 18.048 35.342 -0.369625 9.91382 0.00119886 -7.93455 -21.9279 0.132365 2.10182 30.7298 2.472 -2.0045 4.30597 0.199635 -0.819888 2.07913 0.605009 
11.8975 101.776 186.45 -3.40905 0.614007 173.765 0.976882 -12.7146 -6.86068 -17.7072 57.3344 3.5459 -2.57812 16.6104 0.35026 -2.24881 8.29588 -0.981786 -5.39389 4.93311 0.565938 -1.98237 11.3196 0.0910138 -2.33854 -2.18323 9.33382 3.97569e-016 -3.18055e-015 -2.38542e-015 -84.2827 -42.4319 4.21143 -20.7482 17.4739 -28.5144 0.368473 9.90896 -0.00117926 -10.7975 -0.105698 7.0957 98.0036 -17.076 19.1836 18.1691 17.7503 33.2376 -0.369625 9.91382 0.00119886 -7.69961 -21.0981 0.626246 1.74932 31.0532 2.495 -1.86695 2.85604 0.173624 -1.07783 2.15816 0.951711 
11.8829 101.845 184.62 -3.31032 0.344499 173.37 1.27787 -15.536 -5.64234 -17.7055 58.6895 1.71971 -3.30841 15.5068 0.438934 1.54027 5.8614 -2.33865 -5.93608 4.91103 0.725858 -1.18481 10.9262 0.00469427 -3.04698 -2.06214 9.4209 -5.96354e-016 -3.18055e-015 2.38542e-015 -85.2733 -41.7382 2.6683 -20.7459 17.6752 -29.4946 0.368473 9.90896 -0.00117926 -11.0313 -0.13102 7.34538 97.8763 -17.7539 18.2478 18.2508 17.4419 31.3202 -0.369625 9.91382 0.00119886 -7.18546 -20.4543 2.70949 1.80759 31.6887 0.857258 -0.593427 1.18356 0.109469 -1.63446 2.88174 1.54901 
11.8911 101.899 182.778 -3.17462 0.114794 173.102 1.80469 -18.144 -4.05968 -16.9964 59.2847 -0.181588 -3.83347 14.3753 0.485056 4.97815 3.30098 -3.43185 -6.46144 4.85685 0.871038 -0.352356 10.5882 -0.0834034 -3.64322 -1.96639 9.42943 8.82781e-032 3.18055e-015 -1.59028e-015 -86.3262 -40.9291 0.910441 -20.7082 17.8527 -30.3828 0.368473 9.90896 -0.00117926 -11.2339 -0.153928 7.65363 97.6904 -18.6604 17.1705 18.275 17.1455 29.5711 -0.369625 9.91382 0.00119886 -6.78794 -19.6659 4.4014 1.89571 32.1508 -0.544983 0.480008 -0.298095 0.0549348 -2.09084 3.17474 2.10488 
11.924 101.959 180.941 -3.10235 0.0482372 173.066 2.32044 -20.3693 -2.51267 -16.0031 59.0558 -1.52949 -3.93966 13.2089 0.461125 7.40076 1.64877 -4.18614 -7.00902 4.76097 0.969638 0.276185 10.5521 -0.152316 -3.83368 -2.0277 9.41742 -9.93923e-016 6.36111e-015 -0 -87.4244 -39.9505 -1.14306 -20.5542 18.0112 -31.3308 0.368473 9.90896 -0.00117926 -11.3359 -0.164684 7.80289 97.4836 -19.6502 16.0492 18.239 16.8652 28.0151 -0.369625 9.91382 0.00119886 -6.90241 -18.4147 3.44863 1.49584 31.9901 0.532357 -0.198426 -1.02503 0.0692587 -1.9102 1.59509 2.28938 
